# Blender 4.2.0
# www.blender.org
mtllib untitled.mtl
o Plane
v 1.000000 0.000000 1.000000
v 0.000000 0.000000 1.000000
v 1.000000 0.000000 0.000000
v 0.000000 0.000000 0.000000
v 0.000000 0.074786 1.000000
v 1.000000 0.074786 1.000000
v 1.000000 0.074786 0.000000
v 0.000000 0.074786 0.000000
v 0.638943 -0.511870 0.864718
v 0.638943 0.049244 0.864718
v 0.638943 -0.511870 0.634331
v 0.638943 0.049244 0.634331
v 0.869331 -0.511870 0.864718
v 0.869331 0.049244 0.864718
v 0.869331 -0.511870 0.634331
v 0.869331 0.049244 0.634331
v -1.000000 0.000000 1.000000
v -1.000000 0.000000 0.000000
v -1.000000 0.074786 1.000000
v -1.000000 0.074786 0.000000
v -0.638943 -0.511870 0.864718
v -0.638943 0.049244 0.864718
v -0.638943 -0.511870 0.634331
v -0.638943 0.049244 0.634331
v -0.869331 -0.511870 0.864718
v -0.869331 0.049244 0.864718
v -0.869331 -0.511870 0.634331
v -0.869331 0.049244 0.634331
v 1.000000 0.000000 -1.000000
v 0.000000 0.000000 -1.000000
v 0.000000 0.074786 -1.000000
v 1.000000 0.074786 -1.000000
v 0.638943 -0.511870 -0.864718
v 0.638943 0.049244 -0.864718
v 0.638943 -0.511870 -0.634331
v 0.638943 0.049244 -0.634331
v 0.869331 -0.511870 -0.864718
v 0.869331 0.049244 -0.864718
v 0.869331 -0.511870 -0.634331
v 0.869331 0.049244 -0.634331
v -1.000000 0.000000 -1.000000
v -1.000000 0.074786 -1.000000
v -0.638943 -0.511870 -0.864718
v -0.638943 0.049244 -0.864718
v -0.638943 -0.511870 -0.634331
v -0.638943 0.049244 -0.634331
v -0.869331 -0.511870 -0.864718
v -0.869331 0.049244 -0.864718
v -0.869331 -0.511870 -0.634331
v -0.869331 0.049244 -0.634331
vn -0.0000 -1.0000 -0.0000
vn -0.0000 1.0000 -0.0000
vn -1.0000 -0.0000 -0.0000
vn -0.0000 -0.0000 1.0000
vn -0.0000 -0.0000 -1.0000
vn 1.0000 -0.0000 -0.0000
vt 0.500000 0.000000
vt 0.500000 0.500000
vt 1.000000 0.500000
vt 1.000000 0.000000
vt 0.375000 0.000000
vt 0.625000 0.000000
vt 0.625000 0.250000
vt 0.375000 0.250000
vt 0.625000 0.500000
vt 0.375000 0.500000
vt 0.625000 0.750000
vt 0.375000 0.750000
vt 0.625000 1.000000
vt 0.375000 1.000000
vt 0.125000 0.500000
vt 0.125000 0.750000
vt 0.875000 0.500000
vt 0.875000 0.750000
s 0
usemtl 
f 2/1/1 4/2/1 3/3/1 1/4/1
f 5/1/2 6/4/2 7/3/2 8/2/2
f 4/2/3 2/1/3 5/1/3 8/2/3
f 2/1/4 1/4/4 6/4/4 5/1/4
f 3/3/5 4/2/5 8/2/5 7/3/5
f 1/4/6 3/3/6 7/3/6 6/4/6
f 9/5/3 10/6/3 12/7/3 11/8/3
f 11/8/5 12/7/5 16/9/5 15/10/5
f 15/10/6 16/9/6 14/11/6 13/12/6
f 13/12/4 14/11/4 10/13/4 9/14/4
f 11/15/1 15/10/1 13/12/1 9/16/1
f 16/9/2 12/17/2 10/18/2 14/11/2
f 2/1/1 17/4/1 18/3/1 4/2/1
f 5/1/2 8/2/2 20/3/2 19/4/2
f 2/1/4 5/1/4 19/4/4 17/4/4
f 18/3/5 20/3/5 8/2/5 4/2/5
f 17/4/3 19/4/3 20/3/3 18/3/3
f 21/5/6 23/8/6 24/7/6 22/6/6
f 23/8/5 27/10/5 28/9/5 24/7/5
f 27/10/3 25/12/3 26/11/3 28/9/3
f 25/12/4 21/14/4 22/13/4 26/11/4
f 23/15/1 21/16/1 25/12/1 27/10/1
f 28/9/2 26/11/2 22/18/2 24/17/2
f 30/1/1 29/4/1 3/3/1 4/2/1
f 31/1/2 8/2/2 7/3/2 32/4/2
f 4/2/3 8/2/3 31/1/3 30/1/3
f 30/1/5 31/1/5 32/4/5 29/4/5
f 29/4/6 32/4/6 7/3/6 3/3/6
f 33/5/3 35/8/3 36/7/3 34/6/3
f 35/8/4 39/10/4 40/9/4 36/7/4
f 39/10/6 37/12/6 38/11/6 40/9/6
f 37/12/5 33/14/5 34/13/5 38/11/5
f 35/15/1 33/16/1 37/12/1 39/10/1
f 40/9/2 38/11/2 34/18/2 36/17/2
f 30/1/1 4/2/1 18/3/1 41/4/1
f 31/1/2 42/4/2 20/3/2 8/2/2
f 30/1/5 41/4/5 42/4/5 31/1/5
f 41/4/3 18/3/3 20/3/3 42/4/3
f 43/5/6 44/6/6 46/7/6 45/8/6
f 45/8/4 46/7/4 50/9/4 49/10/4
f 49/10/3 50/9/3 48/11/3 47/12/3
f 47/12/5 48/11/5 44/13/5 43/14/5
f 45/15/1 49/10/1 47/12/1 43/16/1
f 50/9/2 46/17/2 44/18/2 48/11/2
